<svg width="17" height="16" viewBox="0 0 17 16" fill="none" xmlns="http://www.w3.org/2000/svg">
<path fill-rule="evenodd" clip-rule="evenodd" d="M8.73877 6.66669C8.00277 6.66669 7.40544 7.26402 7.40544 8.00002C7.40544 8.73602 8.00277 9.33335 8.73877 9.33335C9.47477 9.33335 10.0721 8.73602 10.0721 8.00002C10.0721 7.26402 9.47477 6.66669 8.73877 6.66669ZM13.4054 6.66669C12.6694 6.66669 12.0721 7.26402 12.0721 8.00002C12.0721 8.73602 12.6694 9.33335 13.4054 9.33335C14.1414 9.33335 14.7388 8.73602 14.7388 8.00002C14.7388 7.26402 14.1414 6.66669 13.4054 6.66669ZM2.73877 8.00004C2.73877 7.26404 3.3361 6.66671 4.0721 6.66671C4.8081 6.66671 5.40544 7.26404 5.40544 8.00004C5.40544 8.73604 4.8081 9.33337 4.0721 9.33337C3.3361 9.33337 2.73877 8.73604 2.73877 8.00004Z" fill="white"/>
<mask id="mask0_50_3338" style="mask-type:luminance" maskUnits="userSpaceOnUse" x="2" y="6" width="13" height="4">
<path fill-rule="evenodd" clip-rule="evenodd" d="M8.73877 6.66669C8.00277 6.66669 7.40544 7.26402 7.40544 8.00002C7.40544 8.73602 8.00277 9.33335 8.73877 9.33335C9.47477 9.33335 10.0721 8.73602 10.0721 8.00002C10.0721 7.26402 9.47477 6.66669 8.73877 6.66669ZM13.4054 6.66669C12.6694 6.66669 12.0721 7.26402 12.0721 8.00002C12.0721 8.73602 12.6694 9.33335 13.4054 9.33335C14.1414 9.33335 14.7388 8.73602 14.7388 8.00002C14.7388 7.26402 14.1414 6.66669 13.4054 6.66669ZM2.73877 8.00004C2.73877 7.26404 3.3361 6.66671 4.0721 6.66671C4.8081 6.66671 5.40544 7.26404 5.40544 8.00004C5.40544 8.73604 4.8081 9.33337 4.0721 9.33337C3.3361 9.33337 2.73877 8.73604 2.73877 8.00004Z" fill="white"/>
</mask>
<g mask="url(#mask0_50_3338)">
</g>
</svg>
